<svg xmlns="http://www.w3.org/2000/svg" width="129" height="40" viewBox="0 0 129 40" fill="none">
<path d="M57.1523 10.9375V28H53.6484V10.9375H57.1523ZM62.4023 10.9375V13.6914H48.4805V10.9375H62.4023ZM61.8672 21.7891V21.543C61.8672 20.6133 62 19.7578 62.2656 18.9766C62.5312 18.1875 62.918 17.5039 63.4258 16.9258C63.9336 16.3477 64.5586 15.8984 65.3008 15.5781C66.043 15.25 66.8945 15.0859 67.8555 15.0859C68.8164 15.0859 69.6719 15.25 70.4219 15.5781C71.1719 15.8984 71.8008 16.3477 72.3086 16.9258C72.8242 17.5039 73.2148 18.1875 73.4805 18.9766C73.7461 19.7578 73.8789 20.6133 73.8789 21.543V21.7891C73.8789 22.7109 73.7461 23.5664 73.4805 24.3555C73.2148 25.1367 72.8242 25.8203 72.3086 26.4062C71.8008 26.9844 71.1758 27.4336 70.4336 27.7539C69.6914 28.0742 68.8398 28.2344 67.8789 28.2344C66.918 28.2344 66.0625 28.0742 65.3125 27.7539C64.5703 27.4336 63.9414 26.9844 63.4258 26.4062C62.918 25.8203 62.5312 25.1367 62.2656 24.3555C62 23.5664 61.8672 22.7109 61.8672 21.7891ZM65.2422 21.543V21.7891C65.2422 22.3203 65.2891 22.8164 65.3828 23.2773C65.4766 23.7383 65.625 24.1445 65.8281 24.4961C66.0391 24.8398 66.3125 25.1094 66.6484 25.3047C66.9844 25.5 67.3945 25.5977 67.8789 25.5977C68.3477 25.5977 68.75 25.5 69.0859 25.3047C69.4219 25.1094 69.6914 24.8398 69.8945 24.4961C70.0977 24.1445 70.2461 23.7383 70.3398 23.2773C70.4414 22.8164 70.4922 22.3203 70.4922 21.7891V21.543C70.4922 21.0273 70.4414 20.543 70.3398 20.0898C70.2461 19.6289 70.0938 19.2227 69.8828 18.8711C69.6797 18.5117 69.4102 18.2305 69.0742 18.0273C68.7383 17.8242 68.332 17.7227 67.8555 17.7227C67.3789 17.7227 66.9727 17.8242 66.6367 18.0273C66.3086 18.2305 66.0391 18.5117 65.8281 18.8711C65.625 19.2227 65.4766 19.6289 65.3828 20.0898C65.2891 20.543 65.2422 21.0273 65.2422 21.543ZM79.5781 17.7578V32.875H76.2031V15.3203H79.332L79.5781 17.7578ZM87.6055 21.5195V21.7656C87.6055 22.6875 87.4961 23.543 87.2773 24.332C87.0664 25.1211 86.7539 25.8086 86.3398 26.3945C85.9258 26.9727 85.4102 27.4258 84.793 27.7539C84.1836 28.0742 83.4805 28.2344 82.6836 28.2344C81.9102 28.2344 81.2383 28.0781 80.668 27.7656C80.0977 27.4531 79.6172 27.0156 79.2266 26.4531C78.8438 25.8828 78.5352 25.2227 78.3008 24.4727C78.0664 23.7227 77.8867 22.918 77.7617 22.0586V21.4141C77.8867 20.4922 78.0664 19.6484 78.3008 18.8828C78.5352 18.1094 78.8438 17.4414 79.2266 16.8789C79.6172 16.3086 80.0938 15.8672 80.6562 15.5547C81.2266 15.2422 81.8945 15.0859 82.6602 15.0859C83.4648 15.0859 84.1719 15.2383 84.7812 15.543C85.3984 15.8477 85.9141 16.2852 86.3281 16.8555C86.75 17.4258 87.0664 18.1055 87.2773 18.8945C87.4961 19.6836 87.6055 20.5586 87.6055 21.5195ZM84.2188 21.7656V21.5195C84.2188 20.9805 84.1719 20.4844 84.0781 20.0312C83.9922 19.5703 83.8516 19.168 83.6562 18.8242C83.4688 18.4805 83.2188 18.2148 82.9062 18.0273C82.6016 17.832 82.2305 17.7344 81.793 17.7344C81.332 17.7344 80.9375 17.8086 80.6094 17.957C80.2891 18.1055 80.0273 18.3203 79.8242 18.6016C79.6211 18.8828 79.4688 19.2188 79.3672 19.6094C79.2656 20 79.2031 20.4414 79.1797 20.9336V22.5625C79.2188 23.1406 79.3281 23.6602 79.5078 24.1211C79.6875 24.5742 79.9648 24.9336 80.3398 25.1992C80.7148 25.4648 81.207 25.5977 81.8164 25.5977C82.2617 25.5977 82.6367 25.5 82.9414 25.3047C83.2461 25.1016 83.4922 24.8242 83.6797 24.4727C83.875 24.1211 84.0117 23.7148 84.0898 23.2539C84.1758 22.793 84.2188 22.2969 84.2188 21.7656ZM93.5156 10V28H90.1289V10H93.5156ZM100.117 15.3203V28H96.7305V15.3203H100.117ZM96.5195 12.0156C96.5195 11.5234 96.6914 11.1172 97.0352 10.7969C97.3789 10.4766 97.8398 10.3164 98.418 10.3164C98.9883 10.3164 99.4453 10.4766 99.7891 10.7969C100.141 11.1172 100.316 11.5234 100.316 12.0156C100.316 12.5078 100.141 12.9141 99.7891 13.2344C99.4453 13.5547 98.9883 13.7148 98.418 13.7148C97.8398 13.7148 97.3789 13.5547 97.0352 13.2344C96.6914 12.9141 96.5195 12.5078 96.5195 12.0156ZM106.461 18.0273V28H103.086V15.3203H106.25L106.461 18.0273ZM105.969 21.2148H105.055C105.055 20.2773 105.176 19.4336 105.418 18.6836C105.66 17.9258 106 17.2812 106.438 16.75C106.875 16.2109 107.395 15.8008 107.996 15.5195C108.605 15.2305 109.285 15.0859 110.035 15.0859C110.629 15.0859 111.172 15.1719 111.664 15.3438C112.156 15.5156 112.578 15.7891 112.93 16.1641C113.289 16.5391 113.562 17.0352 113.75 17.6523C113.945 18.2695 114.043 19.0234 114.043 19.9141V28H110.645V19.9023C110.645 19.3398 110.566 18.9023 110.41 18.5898C110.254 18.2773 110.023 18.0586 109.719 17.9336C109.422 17.8008 109.055 17.7344 108.617 17.7344C108.164 17.7344 107.77 17.8242 107.434 18.0039C107.105 18.1836 106.832 18.4336 106.613 18.7539C106.402 19.0664 106.242 19.4336 106.133 19.8555C106.023 20.2773 105.969 20.7305 105.969 21.2148ZM120.234 9.98828V28H116.859V9.98828H120.234ZM128.227 15.3203L122.719 21.6016L119.766 24.5898L118.535 22.1523L120.879 19.1758L124.172 15.3203H128.227ZM124.723 28L120.973 22.1406L123.305 20.1016L128.613 28H124.723Z" fill="url(#paint0_linear_1525_191)"/>
<circle cx="20" cy="20" r="20" fill="url(#paint1_linear_1525_191)"/>
<path fill-rule="evenodd" clip-rule="evenodd" d="M23.1032 13.5032C23.3246 13.274 23.5895 13.0911 23.8823 12.9654C24.1751 12.8396 24.49 12.7734 24.8087 12.7706C25.1274 12.7678 25.4434 12.8286 25.7383 12.9492C26.0333 13.0699 26.3013 13.2481 26.5266 13.4735C26.7519 13.6988 26.9301 13.9668 27.0508 14.2617C27.1715 14.5567 27.2322 14.8727 27.2295 15.1914C27.2267 15.51 27.1605 15.825 27.0347 16.1178C26.9089 16.4106 26.7261 16.6754 26.4968 16.8968L22.8968 20.4968C22.4468 20.9467 21.8364 21.1995 21.2 21.1995C20.5637 21.1995 19.9533 20.9467 19.5032 20.4968C19.2769 20.2782 18.9738 20.1573 18.6592 20.16C18.3445 20.1627 18.0436 20.2889 17.8211 20.5114C17.5986 20.7339 17.4724 21.0349 17.4696 21.3495C17.4669 21.6642 17.5879 21.9673 17.8064 22.1936C18.7066 23.0935 19.9273 23.599 21.2 23.599C22.4728 23.599 23.6935 23.0935 24.5936 22.1936L28.1936 18.5936C29.068 17.6883 29.5518 16.4758 29.5409 15.2173C29.5299 13.9587 29.0251 12.7548 28.1352 11.8649C27.2452 10.9749 26.0413 10.4701 24.7828 10.4592C23.5242 10.4482 22.3117 10.932 21.4064 11.8064L19.6064 13.6064C19.4918 13.7171 19.4004 13.8495 19.3375 13.9959C19.2746 14.1423 19.2415 14.2998 19.2401 14.4591C19.2388 14.6185 19.2691 14.7765 19.3295 14.9239C19.3898 15.0714 19.4789 15.2054 19.5916 15.3181C19.7042 15.4307 19.8382 15.5199 19.9857 15.5802C20.1332 15.6405 20.2912 15.6709 20.4505 15.6695C20.6099 15.6681 20.7673 15.635 20.9137 15.5721C21.0601 15.5092 21.1926 15.4178 21.3032 15.3032L23.1032 13.5032ZM17.1032 19.5032C17.5533 19.0533 18.1637 18.8005 18.8 18.8005C19.4364 18.8005 20.0468 19.0533 20.4968 19.5032C20.6075 19.6178 20.74 19.7092 20.8864 19.7721C21.0328 19.835 21.1902 19.8681 21.3496 19.8695C21.5089 19.8709 21.6669 19.8405 21.8144 19.7802C21.9619 19.7199 22.0959 19.6307 22.2085 19.5181C22.3212 19.4054 22.4103 19.2714 22.4706 19.1239C22.531 18.9765 22.5613 18.8185 22.5599 18.6591C22.5586 18.4998 22.5255 18.3423 22.4626 18.1959C22.3997 18.0495 22.3083 17.9171 22.1936 17.8064C21.2935 16.9065 20.0728 16.401 18.8 16.401C17.5273 16.401 16.3066 16.9065 15.4064 17.8064L11.8064 21.4064C11.348 21.8492 10.9823 22.3788 10.7308 22.9645C10.4792 23.5501 10.3468 24.1799 10.3412 24.8173C10.3357 25.4546 10.4572 26.0867 10.6985 26.6766C10.9399 27.2665 11.2963 27.8024 11.747 28.2531C12.1976 28.7038 12.7336 29.0602 13.3235 29.3015C13.9134 29.5429 14.5454 29.6643 15.1828 29.6588C15.8201 29.6533 16.45 29.5209 17.0356 29.2693C17.6212 29.0177 18.1509 28.6521 18.5936 28.1936L20.3936 26.3936C20.5083 26.2829 20.5997 26.1505 20.6626 26.0041C20.7255 25.8577 20.7586 25.7002 20.7599 25.5409C20.7613 25.3815 20.731 25.2235 20.6706 25.0761C20.6103 24.9286 20.5212 24.7946 20.4085 24.6819C20.2959 24.5693 20.1619 24.4802 20.0144 24.4198C19.8669 24.3595 19.7089 24.3291 19.5496 24.3305C19.3902 24.3319 19.2328 24.365 19.0864 24.4279C18.94 24.4908 18.8075 24.5822 18.6968 24.6968L16.8968 26.4968C16.6755 26.726 16.4106 26.9089 16.1178 27.0346C15.825 27.1604 15.5101 27.2266 15.1914 27.2294C14.8727 27.2322 14.5567 27.1714 14.2618 27.0508C13.9668 26.9301 13.6988 26.7519 13.4735 26.5266C13.2482 26.3012 13.07 26.0332 12.9493 25.7383C12.8286 25.4433 12.7679 25.1273 12.7706 24.8086C12.7734 24.49 12.8396 24.175 12.9654 23.8822C13.0912 23.5894 13.274 23.3246 13.5032 23.1032L17.1032 19.5032Z" fill="white"/>
<defs>
<linearGradient id="paint0_linear_1525_191" x1="88.5" y1="4" x2="88.5" y2="36" gradientUnits="userSpaceOnUse">
<stop stop-color="#673AB7"/>
<stop offset="1" stop-color="#512DA8"/>
</linearGradient>
<linearGradient id="paint1_linear_1525_191" x1="20" y1="0" x2="20" y2="40" gradientUnits="userSpaceOnUse">
<stop stop-color="#673AB7"/>
<stop offset="1" stop-color="#512DA8"/>
</linearGradient>
</defs>
</svg> 